<?xml version="1.0" encoding="UTF-8" standalone="no"?>
<svg
   width="1024"
   height="500"
   viewBox="0 0 1024 500"
   version="1.1"
   id="svg43"
   sodipodi:docname="play-store-feature-graphic.svg"
   inkscape:version="1.2.2 (b0a8486541, 2022-12-01)"
   inkscape:export-filename="../play-store/feature-graphic-1024x500.png"
   inkscape:export-xdpi="96"
   inkscape:export-ydpi="96"
   xmlns:inkscape="http://www.inkscape.org/namespaces/inkscape"
   xmlns:sodipodi="http://sodipodi.sourceforge.net/DTD/sodipodi-0.dtd"
   xmlns="http://www.w3.org/2000/svg"
   xmlns:svg="http://www.w3.org/2000/svg">
  <sodipodi:namedview
     id="namedview45"
     pagecolor="#ffffff"
     bordercolor="#000000"
     borderopacity="0.25"
     inkscape:showpageshadow="2"
     inkscape:pageopacity="0.0"
     inkscape:pagecheckerboard="0"
     inkscape:deskcolor="#d1d1d1"
     showgrid="false"
     inkscape:zoom="1.3350176"
     inkscape:cx="490.63024"
     inkscape:cy="324.71482"
     inkscape:window-width="2560"
     inkscape:window-height="1528"
     inkscape:window-x="0"
     inkscape:window-y="0"
     inkscape:window-maximized="1"
     inkscape:current-layer="svg43" />
  <defs
     id="defs7">
    <linearGradient
       id="bg"
       x1="0"
       y1="0"
       x2="1"
       y2="1">
      <stop
         offset="0%"
         stop-color="#E8F1F2"
         id="stop2" />
      <stop
         offset="100%"
         stop-color="#C7D9DD"
         id="stop4" />
    </linearGradient>
  </defs>
  <rect
     width="1024"
     height="500"
     fill="url(#bg)"
     id="rect9" />
  <circle
     cx="865"
     cy="88"
     r="140"
     fill="#D8E8EB"
     opacity="0.75"
     id="circle11" />
  <circle
     cx="954"
     cy="430"
     r="170"
     fill="#D0E2E6"
     opacity="0.55"
     id="circle13" />
  <g
     id="g41"
     transform="matrix(1.8271907,0,0,1.8271907,-423.52164,-118.28602)">
    <rect
       x="428"
       y="68"
       width="168"
       height="168"
       rx="38"
       fill="#dce8ea"
       id="rect23" />
    <g
       transform="matrix(1.35,0,0,1.35,444,84)"
       id="g39">
      <path
         fill="#24424b"
         d="m 33,23 h 42 a 5,5 0 0 1 5,5 V 39 H 28 V 28 a 5,5 0 0 1 5,-5 z"
         id="path25" />
      <path
         fill="#1a2e35"
         d="m 25,36 h 58 a 8,8 0 0 1 8,8 v 23 a 8,8 0 0 1 -8,8 H 25 A 8,8 0 0 1 17,67 V 44 a 8,8 0 0 1 8,-8 z"
         id="path27" />
      <path
         fill="#f6fbfb"
         d="M 31,47 H 77 V 60 H 31 Z"
         id="path29" />
      <path
         fill="#dce8ea"
         d="m 35,28 h 38 v 7 H 35 Z"
         id="path31" />
      <circle
         cx="69"
         cy="50"
         r="4.5999999"
         fill="#ffcf33"
         id="circle33" />
      <path
         fill="#12cfe0"
         d="m 54,83 c -4.15,0 -7.5,-3.07 -7.5,-6.85 0,-5.22 6.69,-12.8 6.98,-13.12 l 0.52,-0.5 0.52,0.5 c 0.29,0.32 6.98,7.9 6.98,13.12 0,3.78 -3.35,6.85 -7.5,6.85 z"
         id="path35" />
      <path
         fill="#e84a5f"
         d="m 67.8,67.2 c -1.52,-3.37 -4.91,-5.53 -8.61,-5.53 -1.61,0 -3.14,0.4 -4.49,1.14 l -2.22,-2.22 c 1.97,-1.33 4.32,-2.06 6.71,-2.06 6.09,0 11.32,4.03 12.92,9.85 l 1.07,-3.45 3.02,0.94 -2.36,7.62 -7.78,-1.86 0.74,-3.05 4.25,1.02 C 70.97,69.45 70.89,69.29 70.8,69.14 Z"
         id="path37" />
    </g>
  </g>
  <g
     fill="#173039"
     id="g21">
    <text
       x="512"
       y="316"
       text-anchor="middle"
       font-family="DejaVu Sans, Sans-Serif"
       font-size="52"
       font-weight="700"
       id="text15">
      Android Epson Reset
    </text>
    <text
       x="512"
       y="354"
       text-anchor="middle"
       font-family="DejaVu Sans, Sans-Serif"
       font-size="26"
       font-weight="500"
       fill="#33545C"
       id="text17">
      USB OTG maintenance utility for compatible Epson printers
    </text>
    <text
       x="512"
       y="394"
       text-anchor="middle"
       font-family="DejaVu Sans, Sans-Serif"
       font-size="22"
       fill="#3C616A"
       id="text19">
      Read status, inspect counters, and reset waste ink counters.
    </text>
  </g>
</svg>
